# xmcd CD database file
#
# Track frame offsets:
#	150
#	14298
#	29323
#	42008
#	56173
#	71438
#	87885
#	103563
#	115728
#	129200
#	146443
#	160343
#	178868
#	190115
#
# Disc length: 2697 seconds
#
# Revision: 0
# Processed by: cddbd v1.5.1PL0 Copyright (c) Steve Scherf et al.
# Submitted via: CDex 1.51
#
DISCID=b20a870e
DTITLE=New Early Sunrise Band - Telephone
DYEAR=1993
DGENRE=Country
TTITLE0=High Tech Redneck
TTITLE1=Honky Tonk 101
TTITLE2=I Don't Know If I Know
TTITLE3=Streets of Baltimore
TTITLE4=Blood-Shot Eyes
TTITLE5=(Workin' On My) Barroom Tan
TTITLE6=Honky Tonk Hardwood Floor
TTITLE7=Forecast for Tonight
TTITLE8=Telephone
TTITLE9=Rock that Boogie
TTITLE10=I Want My Rib Back
TTITLE11=Ten Feet Tall
TTITLE12=Route 66
TTITLE13=Truck Driving Romance
EXTD=YEAR: 1993
EXTT0=
EXTT1=
EXTT2=
EXTT3=
EXTT4=
EXTT5=
EXTT6=
EXTT7=
EXTT8=
EXTT9=
EXTT10=
EXTT11=
EXTT12=
EXTT13=
PLAYORDER=
